<?xml version="1.0" standalone="no"?>
<!DOCTYPE svg PUBLIC "-//W3C//DTD SVG 20010904//EN"
 "http://www.w3.org/TR/2001/REC-SVG-20010904/DTD/svg10.dtd">
<svg version="1.0" xmlns="http://www.w3.org/2000/svg"
 width="512.000000pt" height="512.000000pt" viewBox="0 0 512.000000 512.000000"
 preserveAspectRatio="xMidYMid meet">

<g transform="translate(0.000000,512.000000) scale(0.100000,-0.100000)"
fill="#000000" stroke="none">
<path d="M752 4825 c-104 -23 -207 -80 -288 -160 -79 -78 -121 -146 -156 -250
l-23 -70 0 -1785 0 -1785 23 -70 c64 -192 198 -328 387 -392 l80 -28 1785 0
1785 0 70 23 c102 34 171 77 246 151 74 75 117 144 151 246 l23 70 0 1785 0
1785 -23 70 c-35 104 -77 172 -156 250 -82 81 -184 137 -292 160 -100 21
-3515 21 -3612 0z m1688 -670 l0 -444 -37 -6 c-393 -61 -720 -304 -889 -660
-38 -80 -77 -209 -99 -327 l-5 -28 -445 0 -445 0 0 805 c0 774 1 808 20 861
36 103 120 187 221 224 52 18 90 19 867 20 l812 0 0 -445z m1950 413 c71 -35
143 -107 178 -178 l27 -55 3 -822 2 -823 -445 0 -445 0 -4 23 c-23 124 -61
251 -99 331 -170 357 -496 600 -889 661 l-38 6 0 445 0 444 828 -2 827 -3 55
-27z m-1688 -1307 c96 -33 181 -100 235 -185 82 -128 84 -319 7 -452 -30 -50
-117 -135 -165 -159 -53 -27 -78 -55 -85 -94 -15 -93 -52 -131 -127 -131 -56
0 -101 34 -118 89 -32 108 67 283 199 350 43 22 85 69 97 110 37 120 -51 242
-175 243 -113 0 -173 -63 -195 -206 -13 -78 -94 -123 -168 -92 -72 29 -92 103
-62 219 39 149 141 257 290 309 69 24 196 24 267 -1z m-1278 -903 c81 -443
415 -805 843 -914 655 -167 1308 250 1429 914 l17 92 443 0 444 0 -2 -832 -3
-833 -27 -55 c-35 -71 -107 -143 -178 -178 l-55 -27 -827 -3 -828 -2 0 270 c0
213 -3 277 -14 298 -46 89 -155 94 -206 9 -19 -30 -20 -52 -20 -305 l0 -272
-827 2 -828 3 -55 27 c-71 35 -143 107 -178 178 l-27 55 -3 833 -2 832 444 0
443 0 17 -92z m1212 -294 c32 -21 54 -64 54 -104 0 -71 -51 -120 -124 -120
-54 0 -99 33 -116 85 -25 76 34 155 116 155 25 0 56 -7 70 -16z"/>
<path d="M1209 4257 c-51 -34 -59 -59 -59 -179 l0 -108 -107 0 c-89 0 -114 -3
-140 -20 -34 -21 -63 -66 -63 -100 0 -34 29 -79 63 -100 26 -17 51 -20 140
-20 l107 0 0 -109 c0 -96 3 -112 23 -142 14 -21 38 -39 63 -48 37 -13 44 -12
80 5 59 29 74 68 74 192 l0 102 108 0 c125 0 163 16 189 78 21 50 2 107 -46
139 -30 20 -46 23 -142 23 l-109 0 0 108 c0 120 -14 158 -69 187 -41 21 -72
19 -112 -8z"/>
<path d="M3490 3932 c-50 -24 -76 -81 -61 -131 6 -20 22 -48 37 -62 l26 -24
346 -3 c380 -2 379 -3 419 57 28 42 29 76 3 119 -36 59 -54 62 -412 62 -287 0
-327 -2 -358 -18z"/>
<path d="M3811 1587 c-48 -17 -76 -58 -76 -113 0 -119 169 -156 220 -48 20 43
19 72 -5 111 -30 50 -83 69 -139 50z"/>
<path d="M920 1507 c-39 -14 -80 -67 -80 -104 0 -43 28 -86 100 -158 l70 -69
-80 -81 c-103 -106 -114 -153 -51 -216 63 -63 110 -52 216 51 l81 80 69 -70
c38 -38 84 -77 103 -86 90 -42 189 42 161 138 -5 19 -41 64 -86 110 l-78 78
77 78 c88 88 103 117 88 171 -12 45 -36 69 -83 82 -51 14 -82 -2 -169 -89
l-78 -76 -84 82 c-46 45 -90 82 -99 82 -8 0 -21 2 -29 4 -7 3 -29 0 -48 -7z"/>
<path d="M3490 1282 c-50 -24 -76 -81 -61 -131 6 -20 22 -48 37 -62 l26 -24
359 0 359 0 31 31 c40 41 48 96 19 142 -37 59 -54 62 -412 62 -287 0 -327 -2
-358 -18z"/>
<path d="M3793 981 c-35 -22 -63 -67 -63 -103 0 -35 36 -86 74 -104 45 -22 95
-12 132 27 24 25 29 39 29 79 0 42 -5 54 -31 81 -40 40 -96 48 -141 20z"/>
</g>
</svg>
